========= ChongQing_unicom ===测速日志==========
[generic] Extracting URL: http://123.145.24.146:8003/udp/225.0.4.188:7980
[generic] 225.0.4: Downloading webpage
WARNING: [generic] Falling back on generic information extractor
WARNING: [generic] URL could be a direct video link, returning it as such.
[info] 225.0.4: Downloading 1 format(s): 0
[download] Destination: output.ts
WARNING: The video format is unknown. Trying to download as ts according to the filename
[mp3float @ 0x55bea49c0700] Header missing
[h264 @ 0x55bea49bf480] non-existing PPS 0 referenced
    Last message repeated 1 times
[h264 @ 0x55bea49bf480] decode_slice_header error
[h264 @ 0x55bea49bf480] no frame!
[h264 @ 0x55bea49bf480] non-existing PPS 0 referenced
    Last message repeated 1 times
[h264 @ 0x55bea49bf480] decode_slice_header error
[h264 @ 0x55bea49bf480] no frame!
[h264 @ 0x55bea49bf480] non-existing PPS 0 referenced
    Last message repeated 1 times
[h264 @ 0x55bea49bf480] decode_slice_header error
[h264 @ 0x55bea49bf480] no frame!
[h264 @ 0x55bea49bf480] non-existing PPS 0 referenced
    Last message repeated 1 times
[h264 @ 0x55bea49bf480] decode_slice_header error
[h264 @ 0x55bea49bf480] no frame!
[mpegts @ 0x55bea49a57c0] Packet corrupt (stream = 0, dts = 7449456707).
[h264 @ 0x55bea49bf480] non-existing PPS 0 referenced
    Last message repeated 1 times
[h264 @ 0x55bea49bf480] decode_slice_header error
[h264 @ 0x55bea49bf480] no frame!
[h264 @ 0x55bea49bf480] non-existing PPS 0 referenced
    Last message repeated 1 times
[h264 @ 0x55bea49bf480] decode_slice_header error
[h264 @ 0x55bea49bf480] no frame!
[h264 @ 0x55bea49bf480] non-existing PPS 0 referenced
    Last message repeated 1 times
[h264 @ 0x55bea49bf480] decode_slice_header error
[h264 @ 0x55bea49bf480] no frame!
[mpegts @ 0x55bea49a57c0] Packet corrupt (stream = 0, dts = 7449543107).
[h264 @ 0x55bea49bf480] non-existing PPS 0 referenced
    Last message repeated 1 times
[h264 @ 0x55bea49bf480] decode_slice_header error
[h264 @ 0x55bea49bf480] no frame!
[h264 @ 0x55bea49bf480] non-existing PPS 0 referenced
    Last message repeated 1 times
[h264 @ 0x55bea49bf480] decode_slice_header error
[h264 @ 0x55bea49bf480] no frame!
[h264 @ 0x55bea49bf480] non-existing PPS 0 referenced
    Last message repeated 1 times
[h264 @ 0x55bea49bf480] decode_slice_header error
[h264 @ 0x55bea49bf480] no frame!
[mpegts @ 0x55bea49a57c0] Packet corrupt (stream = 0, dts = 7449564707).
[h264 @ 0x55bea49bf480] non-existing PPS 0 referenced
    Last message repeated 1 times
[h264 @ 0x55bea49bf480] decode_slice_header error
[h264 @ 0x55bea49bf480] no frame!
[h264 @ 0x55bea49bf480] non-existing PPS 0 referenced
    Last message repeated 1 times
[h264 @ 0x55bea49bf480] decode_slice_header error
[h264 @ 0x55bea49bf480] no frame!
[h264 @ 0x55bea49bf480] non-existing PPS 0 referenced
    Last message repeated 1 times
[h264 @ 0x55bea49bf480] decode_slice_header error
[h264 @ 0x55bea49bf480] no frame!
[mpegts @ 0x55bea49a57c0] Packet corrupt (stream = 0, dts = 7449586307).
[h264 @ 0x55bea49bf480] non-existing PPS 0 referenced
    Last message repeated 1 times
[h264 @ 0x55bea49bf480] decode_slice_header error
[h264 @ 0x55bea49bf480] no frame!
[h264 @ 0x55bea49bf480] left block unavailable for requested intra mode
[h264 @ 0x55bea49bf480] error while decoding MB 0 51, bytestream 25867
[h264 @ 0x55bea49bf480] concealing 2089 DC, 2089 AC, 2089 MV errors in I frame
[mpegts @ 0x55bea49a57c0] Packet corrupt (stream = 0, dts = 7449607907).
[mpegts @ 0x55bea49a57c0] Packet corrupt (stream = 0, dts = 7449629507).
[h264 @ 0x55bea49bf480] concealing 2660 DC, 2660 AC, 2660 MV errors in P frame
[mpegts @ 0x55bea49a57c0] Packet corrupt (stream = 0, dts = 7449651107).
[mpegts @ 0x55bea49a57c0] Packet corrupt (stream = 0, dts = 7449690707).
[mpegts @ 0x55bea49a57c0] Packet corrupt (stream = 0, dts = 7449712307).
[mpegts @ 0x55bea49a57c0] Packet corrupt (stream = 0, dts = 7449726707).
[mpegts @ 0x55bea49a57c0] Packet corrupt (stream = 0, dts = 7449759107).
[mpegts @ 0x55bea49a57c0] Packet corrupt (stream = 0, dts = 7449780707).
[mpegts @ 0x55bea49a57c0] Packet corrupt (stream = 0, dts = 7449802307).
[mpegts @ 0x55bea49a57c0] Packet corrupt (stream = 0, dts = 7449816707).
[mpegts @ 0x55bea49a57c0] Packet corrupt (stream = 0, dts = 7449823907).
[mpegts @ 0x55bea49a57c0] Packet corrupt (stream = 0, dts = 7449838307).
[mpegts @ 0x55bea49a57c0] Packet corrupt (stream = 0, dts = 7449841907).
[mpegts @ 0x55bea49a57c0] Packet corrupt (stream = 0, dts = 7449856307).
[mpegts @ 0x55bea49a57c0] Packet corrupt (stream = 0, dts = 7449906707).
[mpegts @ 0x55bea49a57c0] Packet corrupt (stream = 0, dts = 7449921107).
[mpegts @ 0x55bea49a57c0] Packet corrupt (stream = 0, dts = 7449942707).
Input #0, mpegts, from 'http://123.145.24.146:8003/udp/225.0.4.188:7980':
  Duration: N/A, start: 82771.541189, bitrate: N/A
  Program 1 
  Stream #0:0[0x121]: Video: h264 (Main) ([27][0][0][0] / 0x001B), yuv420p(top first), 1920x1080 [SAR 1:1 DAR 16:9], 25 fps, 25 tbr, 90k tbn, 50 tbc
  Stream #0:1[0x221]: Audio: mp2 ([3][0][0][0] / 0x0003), 48000 Hz, stereo, fltp, 96 kb/s
Output #0, mpegts, to 'file:output.ts.part':
  Metadata:
    encoder         : Lavf58.76.100
  Stream #0:0: Video: h264 (Main) ([27][0][0][0] / 0x001B), yuv420p(top first), 1920x1080 [SAR 1:1 DAR 16:9], q=2-31, 25 fps, 25 tbr, 90k tbn, 90k tbc
  Stream #0:1: Audio: mp2 ([3][0][0][0] / 0x0003), 48000 Hz, stereo, fltp, 96 kb/s
Stream mapping:
  Stream #0:0 -> #0:0 (copy)
  Stream #0:1 -> #0:1 (copy)
Press [q] to stop, [?] for help
frame=    0 fps=0.0 q=-1.0 size=       0kB time=00:00:00.08 bitrate=   0.0kbits/s speed=N/A    frame=   39 fps=0.0 q=-1.0 Lsize=    3354kB time=00:00:04.98 bitrate=5514.6kbits/s speed=1.17e+03x    
video:3241kB audio:28kB subtitle:0kB other streams:0kB global headers:0kB muxing overhead: 2.584212%
[download] 100% of    3.28MiB in 00:00:06 at 520.08KiB/s
[generic] Extracting URL: http://123.145.25.31:8005/udp/225.0.4.188:7980
[generic] 225.0.4: Downloading webpage
WARNING: [generic] Falling back on generic information extractor
WARNING: [generic] URL could be a direct video link, returning it as such.
[info] 225.0.4: Downloading 1 format(s): 0
[download] Destination: output.ts
WARNING: The video format is unknown. Trying to download as ts according to the filename
[mp3float @ 0x557a1a069700] Header missing
[h264 @ 0x557a1a068480] non-existing PPS 0 referenced
    Last message repeated 1 times
[h264 @ 0x557a1a068480] decode_slice_header error
[h264 @ 0x557a1a068480] no frame!
[h264 @ 0x557a1a068480] non-existing PPS 0 referenced
    Last message repeated 1 times
[h264 @ 0x557a1a068480] decode_slice_header error
[h264 @ 0x557a1a068480] no frame!
[h264 @ 0x557a1a068480] non-existing PPS 0 referenced
    Last message repeated 1 times
[h264 @ 0x557a1a068480] decode_slice_header error
[h264 @ 0x557a1a068480] no frame!
[h264 @ 0x557a1a068480] non-existing PPS 0 referenced
    Last message repeated 1 times
[h264 @ 0x557a1a068480] decode_slice_header error
[h264 @ 0x557a1a068480] no frame!
[h264 @ 0x557a1a068480] non-existing PPS 0 referenced
    Last message repeated 1 times
[h264 @ 0x557a1a068480] decode_slice_header error
[h264 @ 0x557a1a068480] no frame!
[mpegts @ 0x557a1a04e7c0] Packet corrupt (stream = 0, dts = 7450147907).
[h264 @ 0x557a1a068480] non-existing PPS 0 referenced
    Last message repeated 1 times
[h264 @ 0x557a1a068480] decode_slice_header error
[h264 @ 0x557a1a068480] no frame!
[h264 @ 0x557a1a068480] non-existing PPS 0 referenced
    Last message repeated 1 times
[h264 @ 0x557a1a068480] decode_slice_header error
[h264 @ 0x557a1a068480] no frame!
[h264 @ 0x557a1a068480] non-existing PPS 0 referenced
    Last message repeated 1 times
[h264 @ 0x557a1a068480] decode_slice_header error
[h264 @ 0x557a1a068480] no frame!
[mpegts @ 0x557a1a04e7c0] Packet corrupt (stream = 0, dts = 7450241507).
[h264 @ 0x557a1a068480] non-existing PPS 0 referenced
    Last message repeated 1 times
[h264 @ 0x557a1a068480] decode_slice_header error
[h264 @ 0x557a1a068480] no frame!
[h264 @ 0x557a1a068480] non-existing PPS 0 referenced
    Last message repeated 1 times
[h264 @ 0x557a1a068480] decode_slice_header error
[h264 @ 0x557a1a068480] no frame!
[h264 @ 0x557a1a068480] non-existing PPS 0 referenced
    Last message repeated 1 times
[h264 @ 0x557a1a068480] decode_slice_header error
[h264 @ 0x557a1a068480] no frame!
[mpegts @ 0x557a1a04e7c0] Packet corrupt (stream = 0, dts = 7450277507).
[h264 @ 0x557a1a068480] non-existing PPS 0 referenced
    Last message repeated 1 times
[h264 @ 0x557a1a068480] decode_slice_header error
[h264 @ 0x557a1a068480] no frame!
[h264 @ 0x557a1a068480] non-existing PPS 0 referenced
    Last message repeated 1 times
[h264 @ 0x557a1a068480] decode_slice_header error
[h264 @ 0x557a1a068480] no frame!
[mpegts @ 0x557a1a04e7c0] Packet corrupt (stream = 0, dts = 7450349507).
[h264 @ 0x557a1a068480] non-existing PPS 0 referenced
    Last message repeated 1 times
[h264 @ 0x557a1a068480] decode_slice_header error
[h264 @ 0x557a1a068480] no frame!
[h264 @ 0x557a1a068480] non-existing PPS 0 referenced
    Last message repeated 1 times
[h264 @ 0x557a1a068480] decode_slice_header error
[h264 @ 0x557a1a068480] no frame!
[mpegts @ 0x557a1a04e7c0] Packet corrupt (stream = 0, dts = 7450407107).
[h264 @ 0x557a1a068480] non-existing PPS 0 referenced
    Last message repeated 1 times
[h264 @ 0x557a1a068480] decode_slice_header error
[h264 @ 0x557a1a068480] no frame!
[h264 @ 0x557a1a068480] non-existing PPS 0 referenced
    Last message repeated 1 times
[h264 @ 0x557a1a068480] decode_slice_header error
[h264 @ 0x557a1a068480] no frame!
[h264 @ 0x557a1a068480] non-existing PPS 0 referenced
    Last message repeated 1 times
[h264 @ 0x557a1a068480] decode_slice_header error
[h264 @ 0x557a1a068480] no frame!
[mpegts @ 0x557a1a04e7c0] Packet corrupt (stream = 0, dts = 7450439507).
[h264 @ 0x557a1a068480] non-existing PPS 0 referenced
    Last message repeated 1 times
[h264 @ 0x557a1a068480] decode_slice_header error
[h264 @ 0x557a1a068480] no frame!
[h264 @ 0x557a1a068480] non-existing PPS 0 referenced
    Last message repeated 1 times
[h264 @ 0x557a1a068480] decode_slice_header error
[h264 @ 0x557a1a068480] no frame!
[h264 @ 0x557a1a068480] non-existing PPS 0 referenced
    Last message repeated 1 times
[h264 @ 0x557a1a068480] decode_slice_header error
[h264 @ 0x557a1a068480] no frame!
[mpegts @ 0x557a1a04e7c0] Packet corrupt (stream = 0, dts = 7450547507).
[h264 @ 0x557a1a068480] non-existing PPS 0 referenced
    Last message repeated 1 times
[h264 @ 0x557a1a068480] decode_slice_header error
[h264 @ 0x557a1a068480] no frame!
[h264 @ 0x557a1a068480] non-existing PPS 0 referenced
    Last message repeated 1 times
[h264 @ 0x557a1a068480] decode_slice_header error
[h264 @ 0x557a1a068480] no frame!
[mpegts @ 0x557a1a04e7c0] Packet corrupt (stream = 0, dts = 7450655507).
[h264 @ 0x557a1a068480] non-existing PPS 0 referenced
    Last message repeated 1 times
[h264 @ 0x557a1a068480] decode_slice_header error
[h264 @ 0x557a1a068480] no frame!
[h264 @ 0x557a1a068480] non-existing PPS 0 referenced
    Last message repeated 1 times
[h264 @ 0x557a1a068480] decode_slice_header error
[h264 @ 0x557a1a068480] no frame!
[h264 @ 0x557a1a068480] non-existing PPS 0 referenced
    Last message repeated 1 times
[h264 @ 0x557a1a068480] decode_slice_header error
[h264 @ 0x557a1a068480] no frame!
[h264 @ 0x557a1a068480] non-existing PPS 0 referenced
    Last message repeated 1 times
[h264 @ 0x557a1a068480] decode_slice_header error
[h264 @ 0x557a1a068480] no frame!
[mpegts @ 0x557a1a04e7c0] Packet corrupt (stream = 0, dts = 7450785107).
[h264 @ 0x557a1a068480] non-existing PPS 0 referenced
    Last message repeated 1 times
[h264 @ 0x557a1a068480] decode_slice_header error
[h264 @ 0x557a1a068480] no frame!
[h264 @ 0x557a1a068480] non-existing PPS 0 referenced
    Last message repeated 1 times
[h264 @ 0x557a1a068480] decode_slice_header error
[h264 @ 0x557a1a068480] no frame!
[h264 @ 0x557a1a068480] non-existing PPS 0 referenced
    Last message repeated 1 times
[h264 @ 0x557a1a068480] decode_slice_header error
[h264 @ 0x557a1a068480] no frame!
[h264 @ 0x557a1a068480] non-existing PPS 0 referenced
    Last message repeated 1 times
[h264 @ 0x557a1a068480] decode_slice_header error
[h264 @ 0x557a1a068480] no frame!
[h264 @ 0x557a1a068480] non-existing PPS 0 referenced
[mpegts @ 0x557a1a04e7c0] decoding for stream 0 failed
[mpegts @ 0x557a1a04e7c0] Could not find codec parameters for stream 0 (Video: h264 ([27][0][0][0] / 0x001B), none): unspecified size
Consider increasing the value for the 'analyzeduration' (0) and 'probesize' (5000000) options
Input #0, mpegts, from 'http://123.145.25.31:8005/udp/225.0.4.188:7980':
  Duration: N/A, start: 82779.187433, bitrate: N/A
  Program 1 
  Stream #0:0[0x121]: Video: h264 ([27][0][0][0] / 0x001B), none, 50 tbr, 90k tbn, 180k tbc
  Stream #0:1[0x221]: Audio: mp2 ([3][0][0][0] / 0x0003), 48000 Hz, stereo, fltp, 96 kb/s
Output #0, mpegts, to 'file:output.ts.part':
  Metadata:
    encoder         : Lavf58.76.100
  Stream #0:0: Video: h264 ([27][0][0][0] / 0x001B), none, q=2-31, 50 tbr, 90k tbn, 90k tbc
  Stream #0:1: Audio: mp2 ([3][0][0][0] / 0x0003), 48000 Hz, stereo, fltp, 96 kb/s
Stream mapping:
  Stream #0:0 -> #0:0 (copy)
  Stream #0:1 -> #0:1 (copy)
Press [q] to stop, [?] for help
frame=    0 fps=0.0 q=-1.0 size=       0kB time=00:00:00.00 bitrate=N/A speed=N/A    [NULL @ 0x557a1a068480] non-existing PPS 0 referenced
frame=    0 fps=0.0 q=-1.0 size=       0kB time=00:00:03.57 bitrate=   0.0kbits/s speed=3.34x    [mpegts @ 0x557a1a04e7c0] PES packet size mismatch
[mpegts @ 0x557a1a04e7c0] Packet corrupt (stream = 0, dts = 7450938107).
[NULL @ 0x557a1a068480] non-existing PPS 0 referenced
frame=    0 fps=0.0 q=-1.0 size=       0kB time=00:00:03.57 bitrate=   0.0kbits/s speed=2.01x    [NULL @ 0x557a1a068480] non-existing PPS 0 referenced
    Last message repeated 1 times
frame=    0 fps=0.0 q=-1.0 size=       0kB time=00:00:03.57 bitrate=   0.0kbits/s speed=1.25x    [NULL @ 0x557a1a068480] non-existing PPS 0 referenced
    Last message repeated 1 times
frame=    0 fps=0.0 q=-1.0 size=       0kB time=00:00:03.57 bitrate=   0.0kbits/s speed=0.977x    [NULL @ 0x557a1a068480] non-existing PPS 0 referenced
frame=    0 fps=0.0 q=-1.0 size=       0kB time=00:00:03.57 bitrate=   0.0kbits/s speed=0.837x    [mpegts @ 0x557a1a04e7c0] PES packet size mismatch
[mpegts @ 0x557a1a04e7c0] Packet corrupt (stream = 0, dts = 7451076707).
[NULL @ 0x557a1a068480] non-existing PPS 0 referenced
    Last message repeated 1 times
frame=    0 fps=0.0 q=-1.0 size=       0kB time=00:00:03.57 bitrate=   0.0kbits/s speed=0.687x    frame=    0 fps=0.0 q=-1.0 size=       0kB time=00:00:03.57 bitrate=   0.0kbits/s speed=0.535x    [mpegts @ 0x557a1a04e7c0] Packet corrupt (stream = 0, dts = 7451271107).
[NULL @ 0x557a1a068480] non-existing PPS 0 referenced
    Last message repeated 1 times
frame=    0 fps=0.0 q=-1.0 size=       0kB time=00:00:03.57 bitrate=   0.0kbits/s speed=0.43x    [NULL @ 0x557a1a068480] non-existing PPS 0 referenced
    Last message repeated 2 times
frame=    0 fps=0.0 q=-1.0 size=       0kB time=00:00:03.57 bitrate=   0.0kbits/s speed= 0.4x    [NULL @ 0x557a1a068480] non-existing PPS 0 referenced
frame=    0 fps=0.0 q=-1.0 size=       0kB time=00:00:03.57 bitrate=   0.0kbits/s speed=0.367x    [NULL @ 0x557a1a068480] non-existing PPS 0 referenced
frame=    0 fps=0.0 q=-1.0 size=       0kB time=00:00:03.57 bitrate=   0.0kbits/s speed=0.347x    [NULL @ 0x557a1a068480] non-existing PPS 0 referenced
frame=    0 fps=0.0 q=-1.0 size=       0kB time=00:00:03.57 bitrate=   0.0kbits/s speed=0.326x    [NULL @ 0x557a1a068480] non-existing PPS 0 referenced
frame=    0 fps=0.0 q=-1.0 size=       0kB time=00:00:03.57 bitrate=   0.0kbits/s speed=0.306x    [NULL @ 0x557a1a068480] non-existing PPS 0 referenced
frame=    0 fps=0.0 q=-1.0 size=       0kB time=00:00:03.57 bitrate=   0.0kbits/s speed=0.293x    [mpegts @ 0x557a1a04e7c0] PES packet size mismatch
[mpegts @ 0x557a1a04e7c0] Packet corrupt (stream = 0, dts = 7451902907).
[NULL @ 0x557a1a068480] non-existing PPS 0 referenced
frame=    0 fps=0.0 q=-1.0 size=       0kB time=00:00:03.57 bitrate=   0.0kbits/s speed=0.27x    [NULL @ 0x557a1a068480] non-existing PPS 0 referenced
frame=    0 fps=0.0 q=-1.0 size=       0kB time=00:00:03.57 bitrate=   0.0kbits/s speed=0.25x    [mpegts @ 0x557a1a04e7c0] Packet corrupt (stream = 0, dts = 7452171107).
[NULL @ 0x557a1a068480] non-existing PPS 0 referenced
    Last message repeated 2 times
frame=    0 fps=0.0 q=-1.0 size=       0kB time=00:00:03.57 bitrate=   0.0kbits/s speed=0.201x    frame=    0 fps=0.0 q=-1.0 size=       0kB time=00:00:03.57 bitrate=   0.0kbits/s speed=0.153x    frame=    0 fps=0.0 q=-1.0 Lsize=      13kB time=00:00:03.57 bitrate=  30.3kbits/s speed=0.138x    
video:0kB audio:10kB subtitle:0kB other streams:0kB global headers:0kB muxing overhead: 35.170761%
Exiting normally, received signal 15.
[generic] Extracting URL: http://211.158.153.199:8005/udp/225.0.4.188:7980
[generic] 225.0.4: Downloading webpage
WARNING: [generic] Falling back on generic information extractor
WARNING: [generic] URL could be a direct video link, returning it as such.
[info] 225.0.4: Downloading 1 format(s): 0
[download] Destination: output.ts
WARNING: The video format is unknown. Trying to download as ts according to the filename
[mp3float @ 0x55a6f622b700] Header missing
[h264 @ 0x55a6f622a480] non-existing PPS 0 referenced
    Last message repeated 1 times
[h264 @ 0x55a6f622a480] decode_slice_header error
[h264 @ 0x55a6f622a480] no frame!
[h264 @ 0x55a6f622a480] non-existing PPS 0 referenced
    Last message repeated 1 times
[h264 @ 0x55a6f622a480] decode_slice_header error
[h264 @ 0x55a6f622a480] no frame!
[h264 @ 0x55a6f622a480] non-existing PPS 0 referenced
    Last message repeated 1 times
[h264 @ 0x55a6f622a480] decode_slice_header error
[h264 @ 0x55a6f622a480] no frame!
[h264 @ 0x55a6f622a480] non-existing PPS 0 referenced
    Last message repeated 1 times
[h264 @ 0x55a6f622a480] decode_slice_header error
[h264 @ 0x55a6f622a480] no frame!
[mpegts @ 0x55a6f62107c0] Packet corrupt (stream = 0, dts = 7453956707).
[h264 @ 0x55a6f622a480] non-existing PPS 0 referenced
    Last message repeated 1 times
[h264 @ 0x55a6f622a480] decode_slice_header error
[h264 @ 0x55a6f622a480] no frame!
[h264 @ 0x55a6f622a480] left block unavailable for requested intra4x4 mode -1
[h264 @ 0x55a6f622a480] error while decoding MB 0 9, bytestream 186584
[h264 @ 0x55a6f622a480] concealing 7129 DC, 7129 AC, 7129 MV errors in I frame
[mpegts @ 0x55a6f62107c0] PES packet size mismatch
[mpegts @ 0x55a6f62107c0] Packet corrupt (stream = 0, dts = 7454403107).
[mpegts @ 0x55a6f62107c0] Packet corrupt (stream = 0, dts = 7454406707).
[h264 @ 0x55a6f622a480] concealing 6139 DC, 6139 AC, 6139 MV errors in B frame
[mpegts @ 0x55a6f62107c0] decoding for stream 0 failed
Input #0, mpegts, from 'http://211.158.153.199:8005/udp/225.0.4.188:7980':
  Duration: N/A, start: 82821.541189, bitrate: N/A
  Program 1 
  Stream #0:0[0x121]: Video: h264 (Main) ([27][0][0][0] / 0x001B), yuv420p(top first), 1920x1080 [SAR 1:1 DAR 16:9], 25 fps, 25 tbr, 90k tbn, 50 tbc
  Stream #0:1[0x221]: Audio: mp2 ([3][0][0][0] / 0x0003), 48000 Hz, stereo, fltp, 96 kb/s
Output #0, mpegts, to 'file:output.ts.part':
  Metadata:
    encoder         : Lavf58.76.100
  Stream #0:0: Video: h264 (Main) ([27][0][0][0] / 0x001B), yuv420p(top first), 1920x1080 [SAR 1:1 DAR 16:9], q=2-31, 25 fps, 25 tbr, 90k tbn, 90k tbc
  Stream #0:1: Audio: mp2 ([3][0][0][0] / 0x0003), 48000 Hz, stereo, fltp, 96 kb/s
Stream mapping:
  Stream #0:0 -> #0:0 (copy)
  Stream #0:1 -> #0:1 (copy)
Press [q] to stop, [?] for help
frame=    0 fps=0.0 q=-1.0 Lsize=       0kB time=00:00:00.00 bitrate=N/A speed=   0x    
video:0kB audio:0kB subtitle:0kB other streams:0kB global headers:0kB muxing overhead: unknown
Exiting normally, received signal 15.
[generic] Extracting URL: http://220.192.5.142:8888/udp/225.0.4.188:7980
[generic] 225.0.4: Downloading webpage
WARNING: [generic] Falling back on generic information extractor
WARNING: [generic] URL could be a direct video link, returning it as such.
[info] 225.0.4: Downloading 1 format(s): 0
[download] Destination: output.ts
WARNING: The video format is unknown. Trying to download as ts according to the filename
[mp3float @ 0x5590cd429700] Header missing
[h264 @ 0x5590cd428480] non-existing PPS 0 referenced
    Last message repeated 1 times
[h264 @ 0x5590cd428480] decode_slice_header error
[h264 @ 0x5590cd428480] no frame!
[mpegts @ 0x5590cd40e7c0] Packet corrupt (stream = 0, dts = 7457545907).
[h264 @ 0x5590cd428480] concealing 7258 DC, 7258 AC, 7258 MV errors in P frame
[mpegts @ 0x5590cd40e7c0] PES packet size mismatch
[mpegts @ 0x5590cd40e7c0] Packet corrupt (stream = 0, dts = 7457625107).
[mpegts @ 0x5590cd40e7c0] PES packet size mismatch
[mpegts @ 0x5590cd40e7c0] Packet corrupt (stream = 0, dts = 7457646707).
[mpegts @ 0x5590cd40e7c0] PES packet size mismatch
[mpegts @ 0x5590cd40e7c0] Packet corrupt (stream = 0, dts = 7457668307).
[mpegts @ 0x5590cd40e7c0] Packet corrupt (stream = 0, dts = 7457686307).
[mpegts @ 0x5590cd40e7c0] Packet corrupt (stream = 0, dts = 7457707907).
[mpegts @ 0x5590cd40e7c0] Packet corrupt (stream = 0, dts = 7457729507).
[mpegts @ 0x5590cd40e7c0] PES packet size mismatch
[mpegts @ 0x5590cd40e7c0] Packet corrupt (stream = 0, dts = 7457747507).
[mpegts @ 0x5590cd40e7c0] PES packet size mismatch
[mpegts @ 0x5590cd40e7c0] Packet corrupt (stream = 0, dts = 7457765507).
[mpegts @ 0x5590cd40e7c0] Packet corrupt (stream = 0, dts = 7457783507).
[mpegts @ 0x5590cd40e7c0] Packet corrupt (stream = 0, dts = 7457805107).
[mpegts @ 0x5590cd40e7c0] PES packet size mismatch
[mpegts @ 0x5590cd40e7c0] Packet corrupt (stream = 0, dts = 7457819507).
[mpegts @ 0x5590cd40e7c0] PES packet size mismatch
[mpegts @ 0x5590cd40e7c0] Packet corrupt (stream = 0, dts = 7457841107).
[mpegts @ 0x5590cd40e7c0] PES packet size mismatch
[mpegts @ 0x5590cd40e7c0] Packet corrupt (stream = 0, dts = 7457855507).
[mpegts @ 0x5590cd40e7c0] PES packet size mismatch
[mpegts @ 0x5590cd40e7c0] Packet corrupt (stream = 0, dts = 7457862707).
[mpegts @ 0x5590cd40e7c0] PES packet size mismatch
[mpegts @ 0x5590cd40e7c0] Packet corrupt (stream = 0, dts = 7457873507).
[mpegts @ 0x5590cd40e7c0] PES packet size mismatch
[mpegts @ 0x5590cd40e7c0] Packet corrupt (stream = 0, dts = 7457884307).
[mpegts @ 0x5590cd40e7c0] PES packet size mismatch
[mpegts @ 0x5590cd40e7c0] Packet corrupt (stream = 0, dts = 7457895107).
[mpegts @ 0x5590cd40e7c0] Packet corrupt (stream = 0, dts = 7457902307).
[mpegts @ 0x5590cd40e7c0] Packet corrupt (stream = 0, dts = 7457923907).
[mpegts @ 0x5590cd40e7c0] PES packet size mismatch
[mpegts @ 0x5590cd40e7c0] Packet corrupt (stream = 0, dts = 7457938307).
[mpegts @ 0x5590cd40e7c0] Packet corrupt (stream = 0, dts = 7457945507).
[mpegts @ 0x5590cd40e7c0] Packet corrupt (stream = 0, dts = 7457956307).
[mpegts @ 0x5590cd40e7c0] PES packet size mismatch
[mpegts @ 0x5590cd40e7c0] Packet corrupt (stream = 0, dts = 7457959907).
Input #0, mpegts, from 'http://220.192.5.142:8888/udp/225.0.4.188:7980':
  Duration: N/A, start: 82861.361189, bitrate: N/A
  Program 1 
  Stream #0:0[0x121]: Video: h264 (Main) ([27][0][0][0] / 0x001B), yuv420p(top first), 1920x1080 [SAR 1:1 DAR 16:9], 25 fps, 25 tbr, 90k tbn, 50 tbc
  Stream #0:1[0x221]: Audio: mp2 ([3][0][0][0] / 0x0003), 48000 Hz, stereo, fltp, 96 kb/s
Output #0, mpegts, to 'file:output.ts.part':
  Metadata:
    encoder         : Lavf58.76.100
  Stream #0:0: Video: h264 (Main) ([27][0][0][0] / 0x001B), yuv420p(top first), 1920x1080 [SAR 1:1 DAR 16:9], q=2-31, 25 fps, 25 tbr, 90k tbn, 90k tbc
  Stream #0:1: Audio: mp2 ([3][0][0][0] / 0x0003), 48000 Hz, stereo, fltp, 96 kb/s
Stream mapping:
  Stream #0:0 -> #0:0 (copy)
  Stream #0:1 -> #0:1 (copy)
Press [q] to stop, [?] for help
frame=    0 fps=0.0 q=-1.0 size=       0kB time=00:00:00.00 bitrate=   0.0kbits/s speed=N/A    [mpegts @ 0x5590cd40e7c0] PES packet size mismatch
[mpegts @ 0x5590cd40e7c0] Packet corrupt (stream = 0, dts = 7457974307).
frame=   71 fps=0.0 q=-1.0 Lsize=    5195kB time=00:00:04.98 bitrate=8545.0kbits/s speed=23.7x    
video:5028kB audio:34kB subtitle:0kB other streams:0kB global headers:0kB muxing overhead: 2.616401%
[download] 100% of    5.07MiB in 00:00:05 at 898.88KiB/s
[generic] Extracting URL: http://27.10.129.243:8001/udp/225.0.4.188:7980
[generic] 225.0.4: Downloading webpage
WARNING: [generic] Falling back on generic information extractor
WARNING: [generic] URL could be a direct video link, returning it as such.
[info] 225.0.4: Downloading 1 format(s): 0
[download] Destination: output.ts
WARNING: The video format is unknown. Trying to download as ts according to the filename
[h264 @ 0x558c4babb480] non-existing PPS 0 referenced
    Last message repeated 1 times
[h264 @ 0x558c4babb480] decode_slice_header error
[h264 @ 0x558c4babb480] no frame!
[mp3float @ 0x558c4babc700] Header missing
[h264 @ 0x558c4babb480] non-existing PPS 0 referenced
    Last message repeated 1 times
[h264 @ 0x558c4babb480] decode_slice_header error
[h264 @ 0x558c4babb480] no frame!
[h264 @ 0x558c4babb480] co located POCs unavailable
[mpegts @ 0x558c4baa17c0] PES packet size mismatch
[mpegts @ 0x558c4baa17c0] Packet corrupt (stream = 1, dts = 7458177189).
[mpegts @ 0x558c4baa17c0] Packet corrupt (stream = 0, dts = 7458237107).
[h264 @ 0x558c4babb480] co located POCs unavailable
[mpegts @ 0x558c4baa17c0] PES packet size mismatch
[mpegts @ 0x558c4baa17c0] Packet corrupt (stream = 0, dts = 7458251507).
[h264 @ 0x558c4babb480] concealing 6448 DC, 6448 AC, 6448 MV errors in P frame
[h264 @ 0x558c4babb480] concealing 3969 DC, 3969 AC, 3969 MV errors in B frame
[mpegts @ 0x558c4baa17c0] Packet corrupt (stream = 0, dts = 7458265907).
[h264 @ 0x558c4babb480] concealing 3706 DC, 3706 AC, 3706 MV errors in B frame
[mpegts @ 0x558c4baa17c0] PES packet size mismatch
[mpegts @ 0x558c4baa17c0] Packet corrupt (stream = 0, dts = 7458283907).
[mpegts @ 0x558c4baa17c0] Packet corrupt (stream = 0, dts = 7458312707).
[mpegts @ 0x558c4baa17c0] PES packet size mismatch
[mpegts @ 0x558c4baa17c0] Packet corrupt (stream = 0, dts = 7458337907).
[mpegts @ 0x558c4baa17c0] Packet corrupt (stream = 0, dts = 7458355907).
[mpegts @ 0x558c4baa17c0] Packet corrupt (stream = 0, dts = 7458377507).
[mpegts @ 0x558c4baa17c0] PES packet size mismatch
[mpegts @ 0x558c4baa17c0] Packet corrupt (stream = 0, dts = 7458395507).
[mpegts @ 0x558c4baa17c0] PES packet size mismatch
[mpegts @ 0x558c4baa17c0] Packet corrupt (stream = 0, dts = 7458409907).
[mpegts @ 0x558c4baa17c0] Packet corrupt (stream = 0, dts = 7458453107).
[mpegts @ 0x558c4baa17c0] Packet corrupt (stream = 0, dts = 7458474707).
[mpegts @ 0x558c4baa17c0] Packet corrupt (stream = 0, dts = 7458496307).
[mpegts @ 0x558c4baa17c0] Packet corrupt (stream = 0, dts = 7458517907).
[mpegts @ 0x558c4baa17c0] Packet corrupt (stream = 0, dts = 7458539507).
[mpegts @ 0x558c4baa17c0] Packet corrupt (stream = 0, dts = 7458561107).
[mpegts @ 0x558c4baa17c0] Packet corrupt (stream = 0, dts = 7458571907).
[mpegts @ 0x558c4baa17c0] Packet corrupt (stream = 0, dts = 7458593507).
[mpegts @ 0x558c4baa17c0] Packet corrupt (stream = 0, dts = 7458604307).
Input #0, mpegts, from 'http://27.10.129.243:8001/udp/225.0.4.188:7980':
  Duration: N/A, start: 82868.381189, bitrate: N/A
  Program 1 
  Stream #0:0[0x121]: Video: h264 (Main) ([27][0][0][0] / 0x001B), yuv420p(top first), 1920x1080 [SAR 1:1 DAR 16:9], 25 fps, 25 tbr, 90k tbn, 50 tbc
  Stream #0:1[0x221]: Audio: mp2 ([3][0][0][0] / 0x0003), 48000 Hz, stereo, fltp, 96 kb/s
Output #0, mpegts, to 'file:output.ts.part':
  Metadata:
    encoder         : Lavf58.76.100
  Stream #0:0: Video: h264 (Main) ([27][0][0][0] / 0x001B), yuv420p(top first), 1920x1080 [SAR 1:1 DAR 16:9], q=2-31, 25 fps, 25 tbr, 90k tbn, 90k tbc
  Stream #0:1: Audio: mp2 ([3][0][0][0] / 0x0003), 48000 Hz, stereo, fltp, 96 kb/s
Stream mapping:
  Stream #0:0 -> #0:0 (copy)
  Stream #0:1 -> #0:1 (copy)
Press [q] to stop, [?] for help
frame=    0 fps=0.0 q=-1.0 size=       0kB time=00:00:00.00 bitrate=N/A speed=N/A    frame=   63 fps=0.0 q=-1.0 Lsize=    4638kB time=00:00:04.98 bitrate=7626.8kbits/s speed= 849x    
video:4488kB audio:32kB subtitle:0kB other streams:0kB global headers:0kB muxing overhead: 2.635987%
[download] 100% of    4.53MiB in 00:00:05 at 774.45KiB/s
